<?xml version="1.0" encoding="UTF-8"?>
<svg id="_1500_x_1500_px_Logo_4" data-name="1500 x 1500 px Logo 4" xmlns="http://www.w3.org/2000/svg" xmlns:xlink="http://www.w3.org/1999/xlink" viewBox="0 0 1500 1500">
  <defs>
    <style>
      .cls-1 {
        font-size: 210px;
        letter-spacing: .05em;
      }

      .cls-2 {
        fill: #ea7c9d;
      }

      .cls-3 {
        font-family: QuincyCF-Black, 'Quincy CF';
        font-weight: 800;
      }

      .cls-3, .cls-4 {
        fill: #303030;
      }

      .cls-5 {
        stroke-linecap: round;
      }

      .cls-5, .cls-6, .cls-7 {
        stroke: #303030;
        stroke-miterlimit: 10;
      }

      .cls-5, .cls-7 {
        fill: none;
        stroke-width: 2px;
      }

      .cls-8 {
        fill: #f6c7d5;
      }

      .cls-9 {
        fill: url(#linear-gradient);
      }

      .cls-6 {
        font-size: 147px;
        letter-spacing: .05em;
        stroke-width: 7px;
      }

      .cls-10 {
        fill: #e5fcf5;
      }
    </style>
    <linearGradient id="linear-gradient" x1="569.01" y1="341.34" x2="928.23" y2="963.52" gradientUnits="userSpaceOnUse">
      <stop offset="0" stop-color="#e5fcf5"/>
      <stop offset=".03" stop-color="#b3dec1"/>
      <stop offset=".47" stop-color="#b0dcbf"/>
      <stop offset="1" stop-color="#80b69f"/>
    </linearGradient>
  </defs>
  <g id="Background">
    <g>
      <rect class="cls-10" x="470.84" y="338.73" width="525.68" height="538.78" transform="translate(-210.63 480.17) rotate(-31.94)"/>
      <text class="cls-3" transform="translate(518.25 1155.53)"><tspan class="cls-1" x="0" y="0">Oli</tspan><tspan class="cls-6" x="298.4" y="0">VR</tspan></text>
      <g>
        <path class="cls-9" d="m1115.48,714.86c-2.36-9.86-7.19-18.95-12.33-27.69-11.69-19.91-26.41-39.26-41.73-56.77-.88-1-2.49-.1-2.1,1.17,4.69,15.09,8.97,30.43,9.08,46.19.13,17.66-5.76,36.24-19.45,47.4-13.59,11.08-35.69,17-45.67,16.97-13.2-.04-31.39-6.14-41-15.19-6.64-6.25-16.7-14.17-22.78-26.32-30.65-61.3-3.68-135.49-28.41-197.65-5.38-13.53-12.45-26.31-19.84-38.85-24.43-41.47-52.17-80.89-82.94-117.91-13.1-15.76-27.09-31.7-45.38-41.05-17.59-8.99-44.83-9.65-61.11,1.55h0c-5.72-5.83-11.45-11.66-17.17-17.48-2.51-2.56-13.21-11.02-12.42-6.41.73,4.3,2.19,14.05,3.24,19.69,1.81,9.7,3.72,19.26,5.63,28.82-.13.28-.26.57-.38.85-2.88,6.61-5.76,13.22-8.64,19.83l8.54-23.08c-8.44,18.63-13.53,34.13-26.1,51.79s-23.4,31.35-39.99,45.3c-11.55,9.71-25.51,18.33-34.93,30.12-9.42,11.79-14.03,32.33-13.7,47.42.21,9.94,4.24,19.34,6.09,29.1,3.31,17.38,8.01,41.65,7.48,62.8-.09,3.43.31,5.22-.15,7.41l1.12-3.02c0,.71-.06,1.42-.29,2.1-.26.78-.71,1.47-1.17,2.15.14-.43.26-.84.34-1.24l-.6,1.62c-.2.3-.39.6-.57.91-.5.88-.85,1.82-1.15,2.79-2.71,4.68-6.87,10.25-9.64,14.3-6.3,9.21-12.52,18.46-18.53,27.86-4.73,7.39-9.36,14.92-12.61,23.07-3.15,7.88-2.95,21.53-1.85,24.78,1.08,3.2,4.33,10.44,8.03,14.08,2.85,2.8,6.39,5.19,10.31,7.09,0,.37-.01.74-.02,1.11l-1.61-1.93c-9.82,30.63-11.34,82.07,2.14,105.42,18.25,31.62,50.91,47.39,89.37,57.12h-.05c3.06,9.7,4.95,15.92,5.96,26.05.31,3.14,1.36,10.26.55,16.21-1.1,8.06-14.93,22.31-22.03,28.07-9.43,7.65-19.58,13.47-26.47,16.76-2.45,1.17-2.53,4.63-.14,5.91,13.79,7.41,32.42,13.36,50.57,14.65,20.84,1.48,52.96-1.52,70.8-3.8,15.56-26.61,21.02-53.71,15.8-85.89-.11-.65.51-1.19,1.13-.98,9.77,3.27,19.31,8.45,58.76,5.7.54-.04,1.03.37,1.06.92,1.67,27.38-3.48,54.63-16.58,77.6,7.59,12.34,27.09,22.99,45.37,25.06,18.27,2.06,36.02-3.85,50.06-15.73-6.71-30.28-16.29-61.45-15.12-93.61,61.5,2.98,113.07.84,162.79-35.87,54.16-39.99,87.57-89.09,91.74-117.09,1.49-9.99,1.04-20.31-1.31-30.13Zm-426.03,169.6l-.27-.33c.21.12.42.24.64.35l-.37-.03Zm169.61,12.31c.74-.86,1.43-1.81,2.08-2.87l.84,3.08-2.92-.21Z"/>
        <path class="cls-10" d="m763.91,693.51c-.56-1.99.37-4.53,1.64-6.15,8.3-10.58,13.03-30.55,4.36-34.58-35.94-16.7-100.64-24.62-129.33-8.61-10.88,6.07-17.38,45.98-16.2,64.29,3.54,54.67,12.92,74.76,29.74,108.61,10.93,21.98,24.1,43.99,44.68,57.38,14.99,9.76,32.9,14.34,50.75,15.61,10.96.78,22.4.28,32.23-4.61,4.34-2.16,8.45-5.37,10.21-9.89,1.26-3.24,1.18-6.83,1.09-10.31-.48-17.85-1.33-12.41-10-54.28-6.17-29.82-11.13-100.83-11.13-100.83-.04-.09-6.25-10.04-5.49-10.1.02,0-1.7-3.54-2.55-6.52Z"/>
        <path class="cls-10" d="m753.65,363.61c3.22,3.28,5.33,6.26,5.18,8.29-.21,2.85-.39,2.33-2.32,4.43-14.25,15.52-43.61,19.97-63.71,11.97-.95-.38-1.93-.81-2.57-1.61-.92-1.15-.67-2.79-.9-4.25-4.21-27.38-10.03-53.17-15.03-79.96-1.05-5.64-2.51-15.38-3.24-19.69-.79-4.61,9.91,3.85,12.42,6.41,10.86,11.06,21.72,22.11,32.58,33.17,12.33,12.55,25.26,28.68,37.58,41.23Z"/>
        <path class="cls-8" d="m647.72,505.65c32.07,2.04,133.17,3.65,173.91-39.82-16.15,37.12-63.39,67.84-75.38,74.7-13.76,7.88-45.56,13.38-53.43,8.54-33.83-20.79-45.57-43.5-45.57-43.5,0,0-3.73-.19.47.08Z"/>
        <g>
          <path class="cls-2" d="m648.56,504.93s-.03-.05-.03-.05c0,0-3.42-.17.03.05Z"/>
          <path class="cls-2" d="m819.96,468.28c-5.35,5.63-10.8,11.17-16.2,16.53l16.2-16.53c.3-.31.59-.62.89-.94l-1,1.02c-.27.21-.59.45-.8.61-1.75,1.31-3.53,2.6-5.32,3.85-3.59,2.51-7.25,4.92-10.99,7.21-4.55,2.79-9.21,5.41-14.08,7.56-3.72,1.64-7.56,3.03-11.32,4.58-.09.03-.18.06-.27.1-.86.34-1.7.7-2.55,1.06-5.23,1.2-10.3,2.68-15.17,4.51-3.53.09-7.05,1-10.33,2.36-4.43,1.84-8.48,4.47-12.49,7.09-2.37,1.54-4.74,3.09-6.86,4.96-1.87,1.65-3.52,3.53-5.16,5.41-4.77,5.48-9.56,11.17-12.08,17.98-1.59,4.28-2.22,8.91-1.84,13.46.03.34.08.73.35.95.26.22.64.21.98.18,2.43-.19,4.87-.51,7.31-.93.16.08.44.06.98-.08.14-.04.27-.11.41-.16,5.2-.97,10.34-2.38,15.29-4.06,3.24-1.1,7.2-2.29,9.78-4.09-.23.54,0,0,1.85-1.06,11.99-6.86,59.22-37.59,75.38-74.7-.46,1.06-1.83,2.25-2.96,3.14Z"/>
        </g>
        <path class="cls-10" d="m854.18,1004.82c-.75-4.41-1.17-6.86-1.92-11.27-.66-3.9-1.4-7.96-3.77-11.13-2.37-3.17-6.91-5.09-10.4-3.23-3.42,1.83-4.39,6.23-4.76,10.09-.24,2.57-.36,5.15-.41,7.73-.17-.05-.33-.09-.5-.13-.09-.75-.15-1.51-.25-2.27-.74-5.54-1.95-11.36-5.7-15.5-1.3-1.43-2.95-2.65-4.85-2.95-2.74-.44-5.51,1.12-7.22,3.31-1.71,2.19-2.55,4.92-3.24,7.62-.45,1.77-.77,3.29-1.01,4.76-.09-.01-.18-.02-.26-.03.2-3.43.1-6.81-.62-10.21-.47-2.21-2.86-4.74-5.06-5.25-2.56-.6-5.36,3.36-6.91,5.49-3.53,4.87-4.74,6.21-6.95,11.81l1.05.18c.61,1.58,2.2,2.68,3.72,3.53,4.23,2.36,8.83,3.98,13.45,5.48-.02.16-.05.31-.07.47.03-.16.05-.31.08-.47.87.28,1.75.56,2.62.84,5.92,1.88,11.94,3.77,18.14,3.88,1.32.02,2.64-.04,3.95,0,.03.32.04.64.07.95-.01-.32-.04-.63-.06-.95.42,0,.85.03,1.27.06,1.69.13,3.35.5,5.05.56,4.1.16,8.04-1.45,11.83-3.03.38-.16.77-.35,1.07-.62l1.66.29Z"/>
        <path class="cls-10" d="m677.03,965.56c-1.97-.73-4.16-.6-6.2-.09-5.08,1.29-9.33,4.93-12.32,9.24-1.49,2.15-2.69,4.46-3.73,6.85,1.04-3.66,1.51-7.42.71-11.12-1.35-6.25-7.62-11.82-13.8-10.18-4.21,1.12-7,4.99-9.43,8.6-1.52,2.26-3.04,4.51-4.56,6.77-.01,0-.03,0-.04,0,2.25-3.69,4.3-7.51,6.07-11.46.57-1.27,1.11-2.75.5-4-.68-1.39-2.46-1.81-4.01-1.78-4.14.08-7.97,2.17-11.38,4.54-5.25,3.65-9.94,8.1-13.87,13.14l1.02.18c-.27.21-.56.4-.82.63,3.39,1.64,6.95,2.87,10.5,4.11,2.28.79,4.56,1.58,6.85,2.32l-.05.07s.03-.05.05-.07c3.77,1.21,7.58,2.29,11.47,3.01,3.1.57,6.24.9,9.38,1.19,2.51.23,5.02.44,7.54.62.45.03.91.05,1.36.08-.09.26-.18.52-.27.79.11-.26.22-.52.34-.78,8.24.55,16.51.83,24.77.87.62,0,1.32-.08,1.92-.29l2.08.36c1.78-7.72,1.42-5.47,2.06-10.9.68-5.72-.74-10.68-6.15-12.68Z"/>
        <g>
          <g>
            <path class="cls-7" d="m771.15,682.41c1.91-11.13,8.24-25.29-1.1-29.63-35.94-16.7-100.64-24.62-129.33-8.61-10.88,6.07-17.38,45.98-16.2,64.29,3.54,54.67,12.92,74.76,29.74,108.61,10.93,21.98,24.1,43.99,44.68,57.38,14.99,9.76,32.9,14.34,50.75,15.61,10.96.78,22.4.28,32.23-4.61,4.34-2.16,8.45-5.37,10.21-9.89,1.26-3.24,1.18-6.83,1.09-10.31-.48-17.85-1.33-12.41-10-54.28-6.17-29.82-11.39-102.53-11.39-102.53"/>
            <path class="cls-7" d="m700.66,306.7c16.28-11.19,43.52-10.53,61.11-1.55,18.3,9.35,32.28,25.29,45.38,41.05,30.77,37.02,58.5,76.44,82.94,117.91,7.39,12.54,14.46,25.33,19.84,38.85,24.73,62.15-2.24,136.35,28.41,197.65,6.07,12.15,16.14,20.08,22.78,26.32,9.62,9.04,27.8,15.14,41,15.19,9.98.03,32.08-5.89,45.67-16.97,13.69-11.16,19.58-29.73,19.45-47.4-.12-15.75-4.39-31.1-9.08-46.19-.39-1.27,1.22-2.17,2.1-1.17,15.32,17.51,30.04,36.86,41.73,56.77,5.14,8.75,9.97,17.83,12.33,27.69,2.35,9.82,2.8,20.15,1.31,30.13-4.17,28-37.58,77.11-91.74,117.09-49.72,36.71-101.3,38.85-162.8,35.87"/>
            <path class="cls-5" d="m861.13,897c-1.41,32.5,8.32,63.98,15.09,94.56-14.04,11.88-31.78,17.8-50.06,15.73s-37.77-12.72-45.37-25.06c13.1-22.97,18.25-50.22,16.58-77.6-.03-.54-.52-.95-1.06-.92-39.44,2.75-48.98-2.43-58.76-5.7-.62-.21-1.24.33-1.13.98,5.22,32.18-.25,59.28-15.8,85.89-17.84,2.28-49.96,5.28-70.8,3.8-18.15-1.29-36.78-7.24-50.57-14.65-2.39-1.28-2.31-4.74.14-5.91,6.89-3.29,17.03-9.11,26.47-16.76,7.11-5.76,20.93-20.01,22.03-28.07.81-5.95-.24-13.06-.55-16.21-1-10.13-2.9-16.35-5.96-26.05"/>
            <path class="cls-5" d="m693.82,891.08c-59.94-9.06-115.62-21.87-141.76-67.15-13.48-23.35-11.96-74.79-2.14-105.42"/>
            <path class="cls-7" d="m679.46,328.91c-8.44,18.63-13.53,34.13-26.1,51.79-12.56,17.66-23.4,31.35-39.99,45.3-11.55,9.71-25.51,18.33-34.93,30.12-9.42,11.79-14.03,32.33-13.7,47.42.21,9.94,4.24,19.34,6.09,29.1,3.31,17.38,8.01,41.65,7.48,62.8-.13,4.96.8,6.48-1.39,10.75-2.56,5-7.55,11.63-10.73,16.28-6.3,9.21-12.52,18.46-18.53,27.86-4.73,7.39-9.36,14.92-12.61,23.07-3.15,7.88-2.95,21.53-1.85,24.78s4.33,10.44,8.03,14.08c13.79,13.56,43.51,17.63,55.62.82.39-.54,3.16-4.94,3.24-7.62.17-5.61-5.96-11.68-8.77-14.59-4.9-5.09-10.51-6.74-16.17-11.01-7.5-5.66-11.48-7.64-10.63-16.7,1.71-18.31,9.07-39.06,12.4-56.96"/>
            <path class="cls-5" d="m861.79,624.69c1.38,18.72-.6,39.06-8.23,56.94-3,7.04-9.26,16.96-11.64,19.74-8.13,9.47-22.12,15.77-34.58,16.36s-26.93-.26-35.53-9.3c-4.02-4.22-8.75-13.8-7.34-19.46.95-3.8,9.08-8.32,14.68-10.63s11.71-3.02,16.45-5.32c8.17-3.95,13.12-12.56,13.67-23.54"/>
            <path class="cls-7" d="m753.65,363.61c3.22,3.28,5.33,6.26,5.18,8.29-.21,2.85-.39,2.33-2.32,4.43-14.25,15.52-43.61,19.97-63.71,11.97-.95-.38-1.93-.81-2.57-1.61-.92-1.15-.67-2.79-.9-4.25-4.21-27.38-10.03-53.17-15.03-79.96-1.05-5.64-2.51-15.38-3.24-19.69-.79-4.61,9.91,3.85,12.42,6.41,10.86,11.06,21.72,22.11,32.58,33.17,12.33,12.55,25.26,28.68,37.58,41.23Z"/>
          </g>
          <path class="cls-5" d="m624.37,492.19c6.28,13.31,16.62,13.03,23.35,13.45,32.07,2.04,133.17,3.65,173.91-39.82-16.15,37.12-63.39,67.84-75.38,74.7-13.76,7.88-45.56,13.38-53.43,8.54-33.83-20.79-45.57-43.5-45.57-43.5"/>
          <path class="cls-5" d="m772.32,494.34c-22.3,4.33-42.52,13.14-54.92,32.18-4.34,6.66-9.1,16.98-6.17,24.37"/>
          <path class="cls-7" d="m660.24,426.79c7.58-9.27,17.74-16.4,29.04-20.37"/>
          <path class="cls-5" d="m792.52,419.96c-2.99-3.53-6.06-7.13-10.07-9.42-2.19-1.25-4.59-2.06-7.01-2.77-6.04-1.76-12.27-2.87-18.55-3.3"/>
          <ellipse class="cls-4" cx="680.69" cy="450.77" rx="15.53" ry="10.96" transform="translate(68.02 990.38) rotate(-74.89)"/>
          <ellipse class="cls-4" cx="770.04" cy="450.55" rx="18.18" ry="14.72" transform="translate(178.6 1118.5) rotate(-78.81)"/>
          <path class="cls-7" d="m626.43,681.46c-.93,12.57,4.7,25.44,14.55,33.29,10.47,8.34,24.41,10.73,37.75,11.77,25.46,1.99,43.89,2.41,68.79-3.26,6.86-1.56,19.22-5.31,24.68-9.75"/>
          <path class="cls-7" d="m640.74,788.19c6.04,9.58,8.84,10.89,19.76,13.9,8.16,2.25,26.37.21,34.5-2.14,31.35-9.09,53.15-21.09,81.62-37.05"/>
          <path class="cls-7" d="m682.02,860.02c5.48,5.31,11.21,6.62,16.65,7.41,3.59.52,7.23.63,10.84.26,9.02-.9,17.67-3.73,26.33-6.4,13.84-4.27,26.74-6.68,50.65-33.46"/>
          <path class="cls-5" d="m685.64,360.52c1.09,2.03,2.37,4.24,4.57,4.95,1.35.44,2.81.21,4.2-.1,5.56-1.27,10.78-4,14.99-7.85"/>
          <path class="cls-5" d="m680.17,329.68c6.46-1.26,12.19-5.79,14.92-11.78"/>
        </g>
        <ellipse class="cls-10" cx="683.55" cy="455.34" rx="4.69" ry="3.58" transform="translate(104.19 1037.51) rotate(-78.81)"/>
        <ellipse class="cls-10" cx="774.77" cy="455.95" rx="5.57" ry="4.53" transform="translate(132.58 1085.04) rotate(-74.89)"/>
        <path class="cls-7" d="m681.12,989.14c1.78-7.72,1.42-5.47,2.06-10.9.68-5.72-.74-10.67-6.15-12.68-1.97-.73-4.16-.6-6.2-.09-5.08,1.29-9.33,4.93-12.32,9.24-2.99,4.31-4.84,9.29-6.5,14.27,2.6-5.84,4.83-12.28,3.48-18.53-1.35-6.25-7.62-11.82-13.8-10.18-4.21,1.12-7,4.99-9.43,8.6-3.26,4.83-6.51,9.66-9.77,14.49,4.42-5.97,8.19-12.41,11.24-19.19.57-1.27,1.11-2.75.5-4-.68-1.39-2.46-1.81-4.01-1.78-4.14.08-7.97,2.17-11.38,4.54-5.25,3.65-9.94,8.1-13.87,13.14"/>
        <path class="cls-7" d="m790.35,993.65c2.21-5.6,3.41-6.94,6.95-11.81,1.55-2.13,4.35-6.09,6.91-5.49,2.2.51,4.59,3.04,5.06,5.25,1.51,7.1.35,14.11-.77,21.72,1.22-7.36,1.19-10.46,2.67-16.23.69-2.69,1.53-5.43,3.24-7.62s4.48-3.75,7.22-3.31c1.9.31,3.55,1.53,4.85,2.95,3.76,4.14,4.96,9.95,5.7,15.5.61,4.61,1.01,9.25,1.17,13.9-.62-6.39-.63-12.84-.02-19.23.37-3.86,1.33-8.26,4.76-10.09,3.49-1.86,8.03.06,10.4,3.23s3.1,7.23,3.77,11.13c.75,4.41,1.17,6.86,1.92,11.27"/>
      </g>
    </g>
  </g>
</svg>