<?xml version="1.0" encoding="UTF-8"?><svg id="Laag_1" xmlns="http://www.w3.org/2000/svg" viewBox="0 0 259.84 90.68"><defs><style>.cls-1{fill:#fcfcfc;}</style></defs><path class="cls-1" d="m.16,59.82c-1.12-13.26,3.44-28.83,16.42-34.87,20.74-9.98,46.82,3.82,46.52,27.75C67.25,94.21,4.4,100.96.16,59.82Zm27.92-16.86c-7.45,1.19-7.88,11.93-6.57,17.86,2.63,8.04,17.84,7.82,20.03-.47,2.69-10.45-1.37-19.58-13.46-17.39Z"/><path class="cls-1" d="m95.86,7.76l-1.46,73.49s-.04,4.52-1.11,5.37c-3.7,2.93-15.37,2.49-18.93-.63-.98-.86-.86-5.16-.86-5.16l1.46-73.49s.01-4.52,1.09-5.37c3.7-2.93,15.36-2.49,18.93.63.99.86.88,5.16.88,5.16Z"/><path class="cls-1" d="m129.91,31.1c.95.83.88,4.98.88,4.98-.35,14.96-.63,30.45-1,45.41,0,0-.07,4.34-1.11,5.15-3.73,2.91-15.34,2.46-18.91-.64-.95-.83-.88-4.98-.88-4.98h.03l.97-45.41s.05-4.34,1.08-5.15c3.73-2.92,15.37-2.46,18.94.64ZM120.45,1.77c6.09.1,10.98,5.07,10.98,11.16s-4.89,11.06-10.98,11.16c-13.77-.76-14.54-21.89,0-22.32Z"/><path class="cls-1" d="m205.2,31.86c-6.06,17.22-12.3,35.11-18.36,52.35h-.03s-1.5,3.9-2.64,4.57c-4.42,2.56-15.96,2.52-20.44.06-1.12-.61-2.72-4.3-2.72-4.3l-1.84-4.77c-1.16-2.97-4.34-11.19-5.53-14.29-4.15-10.7-8.77-22.63-12.91-33.32-.61-1.68-.92-3.45-.94-5.24,1.57-5.48,12.45-9.58,17.74-6.62,1.11.62,2.69,4.3,2.69,4.3,4.27,11.07,9.04,23.25,13.29,34.37,3.88-10.92,8.08-23.12,11.98-34.05,0,0,1.49-3.92,2.63-4.57,4.64-2.63,15.54,1.36,17.77,6.5.1,1.7-.14,3.4-.7,5.01Z"/><path class="cls-1" d="m258.03,40.85c-.93,1.22-4.38,1.19-5.89,1.73-4,.77-7.46,3.28-9.42,6.85-.12.44-.35.79-.44,1.2-.16.66-.42,1.29-.76,1.87-1.29.58-3.21-.27-5.03-.2.33,9.34.83,20.58,1.17,29.95,0,0,.27,4.58-.76,5.5-3.53,3.16-15.17,3.37-18.94.5-1.05-.8-1.21-4.88-1.17-5.15-.72-17.57-1.4-35.63-2.14-53.2,0,0-.27-4.55.76-5.48,3.53-3.16,15.22-3.45,18.94-.53,1.16.91,1.17,5.51,1.23,5.77,5.01-2.86,10.61-4.51,16.37-4.83,1.21-.18,5.13-.47,6.12.7,2.45,2.94,2.3,12.27-.03,15.31Z"/></svg>